<svg width="108" height="40" viewBox="0 0 108 40" fill="none" xmlns="http://www.w3.org/2000/svg">
<g clip-path="url(#clip0_1_1974)">
<path d="M41.8717 15.4794C39.6411 15.4794 37.816 16.5947 36.9576 18.609C36.5365 19.699 36.3344 20.8612 36.3627 22.0293V22.1916C36.3627 27.2342 38.9212 28.9511 42.2503 28.9511C43.1535 28.9625 44.0489 28.7823 44.8773 28.4222C45.7057 28.0622 46.4484 27.5306 47.0563 26.8624C47.0669 26.8538 47.0754 26.843 47.0813 26.8307C47.0871 26.8185 47.0902 26.805 47.0902 26.7914C47.0902 26.7778 47.0871 26.7644 47.0813 26.7521C47.0754 26.7398 47.0669 26.729 47.0563 26.7204L45.4881 25.2976C45.4687 25.2797 45.4434 25.2699 45.4171 25.2699C45.3908 25.2699 45.3655 25.2797 45.3461 25.2976C44.963 25.7195 44.4921 26.0525 43.9667 26.2732C43.4412 26.4938 42.8738 26.5969 42.3043 26.5751C40.1244 26.5751 39.0091 25.2232 39.0091 22.9554H47.2726C47.2844 22.9564 47.2963 22.9549 47.3074 22.9508C47.3185 22.9468 47.3286 22.9403 47.337 22.9319C47.3454 22.9236 47.3518 22.9135 47.3559 22.9023C47.3599 22.8912 47.3615 22.8793 47.3604 22.8675L47.3807 20.9039C47.3976 17.683 45.3799 15.4692 41.8886 15.4692L41.8717 15.4794ZM44.8594 20.7619H39.0463V20.5456C39.0407 20.0734 39.1571 19.6078 39.3842 19.1937C39.7966 18.4367 40.7361 17.9331 41.9562 17.9331C43.1763 17.9331 44.099 18.4367 44.4944 19.1937C44.7315 19.6048 44.8562 20.0711 44.8561 20.5456L44.8594 20.7619Z" fill="#FF5745"/>
<path d="M67.7235 15.4795C65.4895 15.4795 63.6678 16.5948 62.8094 18.6091C62.3851 19.6982 62.1828 20.8611 62.2145 22.0295V22.1917C62.2145 27.2343 64.7696 28.9512 68.1021 28.9512C69.0052 28.9624 69.9006 28.7821 70.729 28.4221C71.5574 28.062 72.3001 27.5305 72.9081 26.8625C72.917 26.8522 72.9237 26.8402 72.9275 26.8271C72.9314 26.8141 72.9324 26.8004 72.9305 26.7869C72.9285 26.7734 72.9237 26.7605 72.9164 26.7491C72.909 26.7376 72.8993 26.7279 72.8878 26.7205L71.3128 25.3078C71.2929 25.2898 71.267 25.2798 71.2402 25.2798C71.2133 25.2798 71.1874 25.2898 71.1675 25.3078C70.7848 25.7303 70.314 26.0636 69.7885 26.2844C69.2629 26.5051 68.6953 26.6079 68.1257 26.5854C65.9492 26.5854 64.8305 25.2335 64.8305 22.9656H73.1041C73.116 22.9666 73.128 22.965 73.1393 22.961C73.1506 22.957 73.1609 22.9506 73.1695 22.9423C73.1782 22.934 73.1849 22.9239 73.1894 22.9128C73.1938 22.9017 73.1959 22.8897 73.1953 22.8778L73.2122 20.9141C73.2494 17.6932 71.2148 15.4795 67.7235 15.4795ZM70.7112 20.7722H64.915V20.5559C64.9076 20.0835 65.0241 19.6173 65.2529 19.204C65.6653 18.4469 66.6048 17.9433 67.8249 17.9433C69.045 17.9433 69.9677 18.4469 70.3631 19.204C70.6002 19.6151 70.7249 20.0813 70.7247 20.5559L70.7112 20.7722Z" fill="#FF5745"/>
<path d="M24.7534 15.7294V17.9127C24.7534 17.9668 24.8075 18.004 24.8413 18.0209H30.891L24.4289 28.6536C24.4206 28.6638 24.4148 28.6758 24.4122 28.6887C24.4095 28.7016 24.4101 28.715 24.4137 28.7276C24.4174 28.7402 24.4241 28.7518 24.4332 28.7613C24.4423 28.7708 24.4536 28.7779 24.4661 28.782C24.4746 28.786 24.4838 28.788 24.4931 28.788C24.5025 28.788 24.5117 28.786 24.5202 28.782H35.1495C35.1758 28.7795 35.2001 28.7667 35.2171 28.7465C35.2342 28.7263 35.2426 28.7002 35.2408 28.6739V26.477C35.2392 26.4516 35.2295 26.4273 35.2131 26.4078C35.1966 26.3883 35.1743 26.3747 35.1495 26.3689H28.8395L35.261 15.7497C35.2704 15.7405 35.2772 15.7289 35.2806 15.7162C35.2841 15.7034 35.2841 15.69 35.2807 15.6773C35.2772 15.6646 35.2705 15.653 35.2611 15.6438C35.2517 15.6345 35.24 15.6279 35.2272 15.6247C35.2204 15.6173 35.212 15.6116 35.2026 15.6081C35.1932 15.6046 35.1831 15.6033 35.1732 15.6044H24.8413C24.8284 15.6056 24.8158 15.6094 24.8044 15.6156C24.793 15.6217 24.7829 15.6301 24.7747 15.6401C24.7666 15.6502 24.7605 15.6618 24.7568 15.6742C24.7531 15.6866 24.752 15.6996 24.7534 15.7125" fill="#FF5745"/>
<path d="M94.0415 12.2383H91.6994C91.6766 12.2399 91.6551 12.2496 91.639 12.2658C91.6228 12.2819 91.6131 12.3034 91.6115 12.3262V15.6214H89.8811C89.8682 15.6227 89.8556 15.6265 89.8442 15.6326C89.8328 15.6388 89.8227 15.6471 89.8145 15.6572C89.8064 15.6672 89.8003 15.6788 89.7966 15.6912C89.7929 15.7036 89.7918 15.7167 89.7932 15.7296V17.9129C89.7932 17.967 89.8473 18.0041 89.8811 18.021H91.6115V24.9124C91.6115 27.7716 93.7002 28.8903 95.968 28.8903C96.1361 28.8962 96.3045 28.8894 96.4716 28.87C96.4979 28.8675 96.5221 28.8547 96.5392 28.8345C96.5562 28.8143 96.5647 28.7883 96.5628 28.7619V26.5144C96.5602 26.4881 96.5475 26.4638 96.5273 26.4467C96.5071 26.4297 96.481 26.4212 96.4547 26.4231C96.3223 26.44 96.1883 26.44 96.0559 26.4231C94.7783 26.369 94.1294 25.6863 94.1294 24.1722V18.0177H96.7048C96.7302 18.0161 96.7545 18.0064 96.774 17.99C96.7935 17.9735 96.8071 17.9512 96.8129 17.9264V15.7296C96.8113 15.7014 96.7994 15.6748 96.7795 15.6549C96.7595 15.6349 96.7329 15.623 96.7048 15.6214H94.1294V12.3464C94.1294 12.2755 94.0956 12.2383 94.0415 12.2383Z" fill="#FF5745"/>
<path d="M106.662 22.1578C105.797 21.5461 104.519 21.2216 102.917 20.9513C100.808 20.5896 100.551 20.1773 100.551 19.3493C100.548 19.1186 100.609 18.8916 100.729 18.6944C100.848 18.4971 101.021 18.3375 101.227 18.2339C101.845 17.9225 102.545 17.8148 103.228 17.9264C104.121 17.9902 104.961 18.3743 105.594 19.0079C105.602 19.0162 105.612 19.0228 105.622 19.0272C105.633 19.0317 105.645 19.034 105.656 19.034C105.668 19.034 105.679 19.0317 105.69 19.0272C105.701 19.0228 105.711 19.0162 105.719 19.0079H105.736L107.344 17.5749C107.354 17.5682 107.363 17.5596 107.369 17.5494C107.375 17.5393 107.379 17.528 107.381 17.5162C107.383 17.5043 107.382 17.4923 107.378 17.4809C107.375 17.4695 107.369 17.4589 107.361 17.4498C107.075 17.0539 106.707 16.7232 106.283 16.4799C105.795 16.1697 105.268 15.9264 104.715 15.7566C104.098 15.5931 103.464 15.509 102.826 15.5065C101.976 15.4948 101.133 15.6474 100.342 15.956C99.7932 16.1844 99.3017 16.5306 98.9018 16.9699C98.5146 17.417 98.2482 17.9557 98.1278 18.5347C97.9804 19.2138 98.0048 19.919 98.1988 20.5863C98.3495 21.0404 98.5948 21.4575 98.9187 21.8097C99.8549 22.8237 101.332 23.1244 102.772 23.3779C103.745 23.5571 105.509 23.628 105.475 24.9799C105.442 26.3318 103.857 26.707 102.772 26.707C102.182 26.7152 101.597 26.6029 101.052 26.3768C100.508 26.1507 100.015 25.8157 99.6048 25.3923C99.5827 25.3795 99.5576 25.3728 99.5321 25.3728C99.5066 25.3728 99.4816 25.3795 99.4595 25.3923L97.9115 26.7982C97.8913 26.8154 97.8783 26.8395 97.8751 26.8659C97.872 26.8922 97.879 26.9188 97.8946 26.9402C99.0269 28.2177 100.97 28.9917 102.934 28.9917C105.455 28.9917 107.848 27.7682 108.003 25.1591C108.074 23.7734 107.625 22.8372 106.672 22.1714" fill="#FF5745"/>
<path d="M86.4608 9.55469C86.8172 9.55402 87.1658 9.6591 87.4625 9.85664C87.7592 10.0542 87.9906 10.3353 88.1274 10.6644C88.2643 10.9935 88.3005 11.3558 88.2313 11.7055C88.1622 12.0551 87.9909 12.3764 87.7391 12.6287C87.4873 12.881 87.1663 13.0529 86.8168 13.1226C86.4673 13.1924 86.1049 13.1569 85.7755 13.0207C85.4462 12.8845 85.1646 12.6536 84.9665 12.3573C84.7685 12.0609 84.6627 11.7125 84.6627 11.3561C84.6627 10.8789 84.852 10.4212 85.1891 10.0835C85.5262 9.74577 85.9836 9.55559 86.4608 9.55469Z" fill="#FF5745"/>
<path d="M79.1166 15.6211V13.8028C79.191 12.4509 80.1069 11.9305 81.1682 11.9136C81.7159 11.9086 82.2635 11.939 82.8073 12.0048C82.8194 12.0091 82.8323 12.0104 82.845 12.0088C82.8577 12.0071 82.8698 12.0024 82.8803 11.9952C82.8909 11.9879 82.8996 11.9783 82.9057 11.967C82.9118 11.9558 82.9152 11.9433 82.9155 11.9305V9.737C82.916 9.72489 82.9139 9.71281 82.9095 9.70152C82.9051 9.69024 82.8984 9.67998 82.8898 9.67141C82.8812 9.66284 82.871 9.65614 82.8597 9.65172C82.8484 9.6473 82.8363 9.64527 82.8242 9.64574C82.2908 9.54362 81.7485 9.49494 81.2053 9.50042H80.9721C78.3968 9.50042 76.5784 10.9402 76.5784 13.5865V15.6414H74.6182C74.6062 15.6405 74.5942 15.642 74.583 15.6461C74.5717 15.6501 74.5614 15.6565 74.5527 15.6648C74.5441 15.6731 74.5374 15.6831 74.5329 15.6943C74.5285 15.7054 74.5264 15.7173 74.5269 15.7293V17.9126C74.5269 17.9667 74.581 18.0039 74.6182 18.0208H76.5784V28.7278C76.5801 28.7529 76.59 28.7767 76.6064 28.7956C76.6229 28.8145 76.6451 28.8275 76.6697 28.8326H79.0085C79.0317 28.8271 79.0522 28.8135 79.0664 28.7944C79.0807 28.7752 79.0877 28.7516 79.0862 28.7278V18.0343H85.1698V28.7278C85.1715 28.7529 85.1813 28.7767 85.1978 28.7956C85.2143 28.8145 85.2365 28.8275 85.261 28.8326H87.5998C87.6255 28.83 87.6493 28.8178 87.6662 28.7983C87.6832 28.7788 87.6921 28.7536 87.6911 28.7278V15.7293C87.6911 15.6752 87.637 15.6414 87.5998 15.6211H79.1166Z" fill="#FF5745"/>
<path d="M58.615 16.6485C57.787 15.8746 56.6886 15.4589 55.2353 15.4589C54.2755 15.4089 53.3241 15.6606 52.5146 16.1787C52.3363 16.298 52.1679 16.4314 52.011 16.5776C51.9722 16.6168 51.9304 16.6529 51.8859 16.6857V15.7292C51.8859 15.6752 51.8319 15.6414 51.7947 15.6211H49.4559C49.4296 15.6237 49.4053 15.6364 49.3883 15.6566C49.3712 15.6768 49.3628 15.7029 49.3646 15.7292V28.6906C49.3662 28.716 49.3759 28.7403 49.3923 28.7598C49.4088 28.7793 49.4311 28.793 49.4559 28.7987H51.7947C51.821 28.7962 51.8453 28.7834 51.8623 28.7632C51.8793 28.743 51.8878 28.717 51.8859 28.6906V20.0857C51.9145 19.7463 52.0262 19.4192 52.2113 19.1333C52.3964 18.8474 52.6492 18.6115 52.9472 18.4466C53.6231 18.0342 54.7655 17.9802 55.5394 18.1086C56.1298 18.1987 56.6672 18.5004 57.0515 18.9574C57.4357 19.4145 57.6407 19.9957 57.6281 20.5927V28.7041C57.6297 28.7296 57.6394 28.7538 57.6558 28.7733C57.6723 28.7928 57.6946 28.8065 57.7194 28.8123H60.0582C60.0845 28.8097 60.1087 28.7969 60.1258 28.7767C60.1428 28.7565 60.1513 28.7305 60.1494 28.7041V20.6164C60.1957 19.8832 60.0812 19.1488 59.8138 18.4645C59.5464 17.7803 59.1326 17.1628 58.6015 16.6553" fill="#FF5745"/>
<path d="M16.652 11.6974V14.3809L0 23.0736V20.4104L6.62432 16.936L0 15.2799V12.8431L9.77425 15.3103L13.5359 13.3467L0 9.95006V7.52002L16.652 11.6974ZM0 28.6739L16.652 32.8513V30.4381L3.13303 27.0381L6.8947 25.0778L16.6689 27.5248V25.0914L10.0446 23.4353L16.6689 19.9609V17.2976L0.0168988 25.9904V28.6739H0Z" fill="#FF5745"/>
<path d="M55.357 6.83365H50.3584C50.4395 8.32524 51.2427 9.07104 52.7681 9.07104C53.6477 9.0394 54.4923 8.71867 55.1711 8.15851H55.2387V9.86529C54.383 10.2299 53.465 10.4262 52.5349 10.4432C51.2101 10.4432 50.1962 10.1109 49.4932 9.4462C48.7902 8.78151 48.4432 7.82504 48.4522 6.57679C48.4522 5.33529 48.7812 4.35854 49.4391 3.64654C49.7907 3.28359 50.2162 3.00041 50.6868 2.81615C51.1573 2.63189 51.662 2.55086 52.1665 2.57854C54.289 2.57854 55.3503 3.76596 55.3503 6.1408L55.357 6.83365ZM53.4846 5.71833C53.4666 4.43628 52.9721 3.79638 52.0009 3.79863C50.969 3.79863 50.4181 4.43853 50.3482 5.71833H53.4846Z" fill="#0072CE"/>
<path d="M39.1747 1.01393C39.1747 1.21446 39.1152 1.41049 39.0038 1.57723C38.8924 1.74397 38.7341 1.87393 38.5488 1.95067C38.3635 2.02741 38.1597 2.04749 37.963 2.00837C37.7663 1.96925 37.5856 1.87268 37.4438 1.73088C37.302 1.58908 37.2055 1.40842 37.1663 1.21173C37.1272 1.01505 37.1473 0.811184 37.224 0.625913C37.3008 0.440643 37.4307 0.282289 37.5975 0.170877C37.7642 0.0594657 37.9602 0 38.1608 0C38.4297 0 38.6876 0.106824 38.8777 0.296972C39.0679 0.48712 39.1747 0.745016 39.1747 1.01393Z" fill="#0072CE"/>
<path d="M24.7567 0.895593C24.7564 0.810985 24.7878 0.729326 24.8447 0.66675C24.9017 0.604174 24.98 0.565231 25.0643 0.557617H32.4051V2.17314H29.5391V10.244H27.6261V2.17314H24.7567V0.895593Z" fill="#0072CE"/>
<path d="M31.6108 3.13654C31.6104 3.05246 31.6414 2.97124 31.6976 2.90875C31.7538 2.84625 31.8314 2.80697 31.915 2.79856H33.4832V4.15046C33.903 3.72249 34.3795 3.35405 34.8993 3.05542C35.236 2.87717 35.6101 2.78105 35.991 2.7749H36.3864V4.80275H36.3256C35.994 4.72144 35.6529 4.68619 35.3117 4.69798C34.6696 4.67615 34.0344 4.8367 33.4798 5.16101V10.2306H31.6108V3.13316V3.13654Z" fill="#0072CE"/>
<path d="M45.8971 1.014V6.82379L42.4565 0.567871H40.4287C40.3444 0.575485 40.266 0.614427 40.2091 0.677004C40.1522 0.73958 40.1208 0.821239 40.1211 0.905846V10.2441H41.909V3.14662L45.8261 10.2441H47.6681V0.567871H46.2047C46.1198 0.574682 46.0406 0.613275 45.983 0.675935C45.9253 0.738595 45.8934 0.820703 45.8937 0.905846L45.8971 1.014Z" fill="#0072CE"/>
<path d="M56.1241 4.11323V7.98305C56.1241 8.83024 56.3202 9.44423 56.7122 9.82501C57.1043 10.2058 57.7205 10.3951 58.5609 10.3928C59.1009 10.3962 59.6392 10.3315 60.1629 10.2002V8.84827H60.1089C59.8452 8.99156 59.5505 9.06815 59.2504 9.07133C59.0726 9.08944 58.8931 9.06656 58.7255 9.00446C58.5579 8.94236 58.4068 8.84268 58.2838 8.71308C58.0945 8.47199 57.9999 7.95826 57.9999 7.17191V4.11323H59.656V2.80865H57.9999V0.567871H56.4418C56.357 0.574682 56.2778 0.613275 56.2202 0.675935C56.1625 0.738595 56.1306 0.820703 56.1309 0.905846V4.11999L56.1241 4.11323Z" fill="#0072CE"/>
<path d="M37.228 3.13973C37.2277 3.05513 37.2591 2.97347 37.316 2.91089C37.373 2.84831 37.4513 2.80937 37.5356 2.80176H39.1004V10.2372H37.228V3.13973Z" fill="#0072CE"/>
</g>
<defs>
<clipPath id="clip0_1_1974">
<rect width="108" height="32.8512" fill="white"/>
</clipPath>
</defs>
</svg>
